<svg width="100" height="100" viewBox="0 0 100 100" fill="none" xmlns="http://www.w3.org/2000/svg">
  <circle cx="50" cy="50" r="50" fill="#FFEEDA"/>
  <path d="M70.7348 62.5765C70.7348 65.6498 69.4698 68.0748 67.6131 69.8265C65.3081 72.0165 62.2348 73.0815 59.0464 73.0815H34.3564V67.8448H59.2764C61.0164 67.8448 62.6414 67.1515 63.8414 65.9515C65.0414 64.7515 65.7348 63.2415 65.7348 61.3848C65.7348 59.6448 65.0414 58.0198 63.8414 56.8198C62.6414 55.6198 61.1314 54.9265 59.2764 54.9265H44.2898C41.1014 54.9265 38.0281 53.8615 35.7231 51.6715C33.8664 49.9198 32.6014 47.4948 32.6014 44.4215C32.6014 41.3481 33.8664 38.9231 35.7231 37.1715C38.0281 34.9815 41.1014 33.9165 44.2898 33.9165H67.6131V39.1531H44.0598C42.3198 39.1531 40.6948 39.8465 39.4948 41.0465C38.2948 42.2465 37.6014 43.7565 37.6014 45.6131C37.6014 47.3531 38.2948 48.9781 39.4948 50.1781C40.6948 51.3781 42.2048 52.0715 44.0598 52.0715H59.0464C62.2348 52.0715 65.3081 53.1365 67.6131 55.3265C69.4698 56.9615 70.7348 59.5015 70.7348 62.5765Z" fill="#101010"/>
  <path d="M67.6131 73.0815V78.3181C67.6131 80.8581 66.1031 82.9448 63.9131 83.9898C63.1048 84.3398 62.1798 84.5748 61.2548 84.5748C59.5148 84.5748 57.8898 83.8815 56.6898 82.6815L49.5264 75.5181L53.2564 71.7881L60.4198 78.9515C60.6548 79.1865 60.8898 79.3015 61.2398 79.3015C61.9331 79.3015 62.3981 78.7998 62.3981 78.2248V73.0815H67.6131Z" fill="#101010"/>
</svg>
